<svg xmlns="http://www.w3.org/2000/svg" width="256" height="256" viewBox="0 0 240 240">
    <path style="fill:#38bdf8" d="M107.644 470.877 74.633 100.62h362.734l-33.046 370.199L255.778 512z" transform="translate(1.11) scale(.46875)" />
    <path style="fill:#38bdf8" d="m376.03 447.246 28.24-316.352H256v349.629z" transform="translate(1.11) scale(.46875)" />
    <path style="fill:#000" d="m150.31 268.217 4.07 45.41H256v-45.41zM146.26 221.716H256v-45.411H142.132zM255.791 433.457l.209-.058v-47.246l-.199.053-50.574-13.656-3.233-36.217h-45.585l6.362 71.301z" transform="translate(1.11) scale(.46875)" />
    <path d="M76.11 0h25.78v10.781h-15v10.782h15v10.78H76.11zM107.047 0h25.781v9.375h-15v1.875h15v21.563h-25.781v-9.844h15v-1.875h-15zM137.985 0h25.78v9.375h-15v1.875h15v21.563h-25.78v-9.844h15v-1.875h-15z" style="fill:#fff" />
    <path style="fill:#000" d="M369.597 176.305H255.843v45.411h63.988l-4.132 46.501h-59.856v45.41h55.918l-5.271 58.894-50.647 13.67v47.244l93.094-25.801.683-7.672 10.671-119.551 1.108-12.194z" transform="translate(1.11) scale(.46875)" />
</svg>