<svg xmlns="http://www.w3.org/2000/svg" viewBox="0 0 1080 1080" style="enable-background:new 0 0 1080 1080" xml:space="preserve">
    <path d="M948.1 0c72.8 0 131.9 59.1 131.9 131.9V948c0 72.8-59.1 131.9-131.9 131.9H131.9C59.1 1080 0 1020.9 0 948.1V131.9C0 59.1 59.1 0 131.9 0h816.2zM338.5 892.9V416.7H180.2v476.1h158.3zm570.6 0v-273c0-146.2-78.1-214.3-182.2-214.3-84 0-121.6 46.2-142.6 78.6v-67.4H426.1c2.1 44.7 0 476.1 0 476.1h158.2V627c0-14.2 1-28.5 5.2-38.6 11.4-28.4 37.5-57.9 81.2-57.9 57.2 0 80.2 43.7 80.2 107.7v254.7h158.2zM260.4 187.1c-54.2 0-89.5 35.6-89.5 82.3 0 45.7 34.3 82.3 87.4 82.3h1c55.2 0 89.5-36.6 89.5-82.3-1-46.6-34.2-82.2-88.4-82.3z" style="fill-rule:evenodd;clip-rule:evenodd;fill:#38bdf8" />
</svg>