<svg id="Layer_1" data-name="Layer 1" xmlns="http://www.w3.org/2000/svg" viewBox="0 0 884.39 311.85">
    <defs>
        <style>.cls-1{fill:#fff;}.cls-2,.cls-3{fill:#0ea5e9;}.cls-3{font-size:400px;font-family:Poppins-Medium, Poppins;font-weight:500;}</style>
    </defs>
    <path class="cls-1" d="M52.8,271.05h100v37.2H0v-37.2l100.4-146H0V87.85H152.8v37.2Z" />
    <path class="cls-1" d="M199.4,138.25q13.8-25.59,37.6-39.8a100.78,100.78,0,0,1,52.6-14.2q26,0,45.4,10.2t31,25.4v-32h46v220.4H366v-32.8q-11.61,15.6-31.6,26t-45.6,10.4a96.83,96.83,0,0,1-52-14.6q-23.61-14.6-37.4-40.8t-13.8-59.4Q185.6,163.85,199.4,138.25Zm157.2,20q-9.41-16.8-24.6-25.6a64.45,64.45,0,0,0-32.8-8.8,65.52,65.52,0,0,0-32.8,8.6q-15.21,8.61-24.6,25.2t-9.4,39.4q0,22.8,9.4,40t24.8,26.2a63.58,63.58,0,0,0,32.6,9,64.35,64.35,0,0,0,32.8-8.8q15.19-8.79,24.6-25.8t9.4-39.8Q366,175.05,356.6,158.25Z" />
    <rect class="cls-1" x="471.99" y="87.85" width="45.6" height="220.4" />
    <path class="cls-1" d="M735.39,95.05a76.88,76.88,0,0,1,32.2,32q11.6,21.21,11.6,51.2v130H734V185.05q0-29.6-14.8-45.4t-40.4-15.8q-25.6,0-40.6,15.8t-15,45.4v123.2h-45.6V87.85h45.6v25.2a75.53,75.53,0,0,1,28.6-21.2,91.53,91.53,0,0,1,37-7.6Q714.79,84.25,735.39,95.05Z" />
    <path class="cls-2" d="M834.79,302.65a29.2,29.2,0,0,1,20.8-50,27.77,27.77,0,0,1,20.4,8.4,30,30,0,0,1,0,41.6,27.77,27.77,0,0,1-20.4,8.4A28.24,28.24,0,0,1,834.79,302.65Z" />
    <text class="cls-3" transform="translate(446.31 55.6)">.</text>
</svg>